<svg id="Layer_2" data-name="Layer 2" xmlns="http://www.w3.org/2000/svg" viewBox="0 0 191.27 219.1"><defs><style>.cls-1{fill:#5b8ec1;}.cls-2{fill:#fff;}.cls-3{opacity:0.63;}.cls-4{fill:#fbb03b;}.cls-5{fill:#4d4d4d;}.cls-6{fill:#91bece;}.cls-7{fill:#98e094;}.cls-8{fill:#22b573;}.cls-9{fill:#666;}.cls-10{fill:#c1272d;}</style></defs><circle class="cls-1" cx="95.63" cy="95.63" r="95.63"/><path class="cls-2" d="M119.53,225.6a11,11,0,1,1,11-11A11,11,0,0,1,119.53,225.6Z" transform="translate(-23.9 -8)"/><path class="cls-1" d="M119.53,205.16a9.47,9.47,0,1,1-9.47,9.47,9.48,9.48,0,0,1,9.47-9.47m0-3A12.47,12.47,0,1,0,132,214.63a12.47,12.47,0,0,0-12.47-12.47Z" transform="translate(-23.9 -8)"/><ellipse class="cls-2" cx="95.6" cy="95" rx="90.5" ry="91"/><g class="cls-3"><path class="cls-4" d="M152.5,181A43.8,43.8,0,0,1,118,164.32a43.28,43.28,0,0,1-3.4-4.95l1.36.08-.24-.7a43.53,43.53,0,0,1,9.15-43.06,44.21,44.21,0,0,0,5-4.7c.37-.41.74-.82,1.09-1.25s.65-.76,1-1.16a1.3,1.3,0,0,0,.15-.2c.29-.36.61-.79.93-1.24s.65-.9,1-1.37.67-1,1-1.54a43.77,43.77,0,0,0,4.36-9.44A44.64,44.64,0,0,0,141.5,81c0-.89,0-1.78-.08-2.66a43.86,43.86,0,0,1,14,14.54,42.82,42.82,0,0,1,2.68,5.33l.22.53.49-.29a43.78,43.78,0,0,0,5.79-4,45.26,45.26,0,0,0,1-69.63A91.14,91.14,0,0,1,210.5,103a89.58,89.58,0,0,1-9.95,41.3,90.89,90.89,0,0,1-25.27,30.36l-.08,0h0c-.75.45-1.56.9-2.39,1.34s-1.53.77-2.33,1.12c-1,.45-2,.84-2.91,1.18-.29.11-.6.22-.9.31-.61.21-1.23.41-1.85.59-.47.14-.93.27-1.4.38s-.82.21-1.23.3c-.56.12-1.11.24-1.68.34-.42.08-.84.15-1.26.2l-.21,0c-.42.07-.83.12-1.26.17l-.23,0-1.05.1-.57.05c-.43,0-.86.07-1.28.08s-.93,0-1.39.05h-.76Z" transform="translate(-23.9 -8)"/><path class="cls-5" d="M169.58,27.87A90,90,0,0,1,210,103a89.09,89.09,0,0,1-9.89,41.07A90.57,90.57,0,0,1,175,174.22l-.07,0,0,0c-.75.45-1.54.89-2.36,1.32s-1.5.76-2.3,1.11c-1,.43-1.93.82-2.87,1.16-.29.11-.59.21-.91.31-.65.23-1.24.42-1.82.58s-.91.26-1.39.38-.8.21-1.2.29c-.55.12-1.1.24-1.67.34l-1.23.2-.09,0H159l-1.27.17-.2,0-1.06.1-.57,0c-.46,0-.86.07-1.28.08s-.89,0-1.32.05h-.77A43.3,43.3,0,0,1,118.39,164a44.42,44.42,0,0,1-2.87-4.08l1.15.06-.47-1.4a43,43,0,0,1,9-42.51,44.45,44.45,0,0,0,5-4.75c.38-.41.76-.84,1.11-1.27s.66-.77,1-1.19a.73.73,0,0,0,.11-.15c.3-.37.6-.77,1-1.28s.68-1,1-1.37.66-1,1-1.57A44.05,44.05,0,0,0,139.79,95,44.78,44.78,0,0,0,142,81c0-.57,0-1.13,0-1.7A43.4,43.4,0,0,1,155,93.14a41.06,41.06,0,0,1,2.65,5.26l.43,1,1-.56a44.74,44.74,0,0,0,5.85-4,45.79,45.79,0,0,0,4.63-67m-10.21-6.94a44.74,44.74,0,0,1,4.95,73.16A43.24,43.24,0,0,1,158.6,98a41.78,41.78,0,0,0-2.71-5.39,44.11,44.11,0,0,0-15-15.23q.15,1.78.15,3.6a43.92,43.92,0,0,1-2.16,13.64,43,43,0,0,1-4.31,9.33c-.32.52-.64,1-1,1.53s-.61.9-.94,1.35-.64.87-1,1.3a.94.94,0,0,1-.09.12c-.31.39-.63.77-.95,1.15s-.71.83-1.08,1.23a44.48,44.48,0,0,1-5,4.7,44,44,0,0,0-9.25,43.56q-.78,0-1.56-.12a43.47,43.47,0,0,0,3.92,5.84A44.42,44.42,0,0,0,152.5,181.5h.77c.47,0,.93,0,1.39-.05s.87,0,1.3-.08l.58-.05,1.07-.1.23,0,1.27-.17.21,0c.43-.06.86-.13,1.28-.21.57-.1,1.13-.22,1.69-.34s.84-.19,1.25-.3,1-.25,1.42-.39c.63-.18,1.25-.38,1.86-.59l.92-.32c1-.36,2-.76,2.94-1.19.8-.35,1.59-.73,2.36-1.14s1.69-.91,2.51-1.41l0,0A91,91,0,0,0,159.37,20.93Z" transform="translate(-23.9 -8)"/></g><path class="cls-6" d="M53.34,40.89l-.6.79.67-.72a.46.46,0,0,1-.07-.07Z" transform="translate(-23.9 -8)"/><path class="cls-6" d="M126.84,193.74c-2,.15-3.92.24-5.91.25H122a45.59,45.59,0,0,0,4.84-.26Z" transform="translate(-23.9 -8)"/><path class="cls-7" d="M114.15,193.56A90.75,90.75,0,0,1,52.83,42l.09-.12.84-.91-.17-.17,0,0-.06,0A10.63,10.63,0,0,1,50.25,33a10.75,10.75,0,0,1,19.67-6,7.42,7.42,0,0,1,.44.7l.11.2.21-.09a43.81,43.81,0,0,1,31.74-1.13l.19.06.11-.17A10.76,10.76,0,0,1,112,21.25c.31,0,.61,0,.93,0A10.8,10.8,0,0,1,122.75,32a10.62,10.62,0,0,1-2.18,6.49l-.12.16.13.16A43.72,43.72,0,0,1,117.87,100a44.08,44.08,0,0,1-6.59,5.09,43.4,43.4,0,0,1-13.14,5.52A45.08,45.08,0,0,0,76.75,149,45.6,45.6,0,0,0,114.15,193.56Z" transform="translate(-23.9 -8)"/><path class="cls-5" d="M112,21.5a8.47,8.47,0,0,1,.91,0A10.55,10.55,0,0,1,122.5,32a10.39,10.39,0,0,1-2.13,6.34l-.25.33.28.3a43.54,43.54,0,0,1-9.26,65.87,42.81,42.81,0,0,1-13,5.48l-.08,0-.07,0A45.36,45.36,0,0,0,76.5,149a45.87,45.87,0,0,0,34,44A90.51,90.51,0,0,1,53,42.12a.94.94,0,0,0,.09-.12c.23-.23.44-.47.66-.7l.32-.36-.34-.33,0,0h0l0,0A10.37,10.37,0,0,1,50.5,33a10.5,10.5,0,0,1,19.22-5.84,7.57,7.57,0,0,1,.42.67l.22.4.42-.18a43.58,43.58,0,0,1,31.55-1.13l.39.14.21-.36A10.53,10.53,0,0,1,112,21.5m0-.5a11,11,0,0,0-9.5,5.45,44.09,44.09,0,0,0-31.92,1.14q-.21-.37-.45-.72a11,11,0,1,0-16.79,14,.46.46,0,0,0,.07.07l-.67.72-.1.13A91,91,0,0,0,120,194h.84A45,45,0,0,1,98.2,110.81a43.43,43.43,0,0,0,13.21-5.55A44.16,44.16,0,0,0,131.7,73.18,44.34,44.34,0,0,0,132,68a43.86,43.86,0,0,0-11.23-29.36A11,11,0,0,0,113,21c-.32,0-.63,0-1,0Z" transform="translate(-23.9 -8)"/><path class="cls-8" d="M84.14,65.18a10,10,0,0,0-18.88,0c0-.16,0-.32,0-.48a9.45,9.45,0,0,1,18.9,0C84.15,64.86,84.15,65,84.14,65.18Z" transform="translate(-23.9 -8)"/><path class="cls-9" d="M74.7,55.5a9.2,9.2,0,0,1,9.16,8.34,10.21,10.21,0,0,0-18.32,0A9.22,9.22,0,0,1,74.7,55.5m0-.5A9.7,9.7,0,0,0,65,64.7a9.85,9.85,0,0,0,.17,1.82,9.7,9.7,0,0,1,19.06,0,9.85,9.85,0,0,0,.17-1.82A9.7,9.7,0,0,0,74.7,55Z" transform="translate(-23.9 -8)"/><path class="cls-8" d="M121.74,65.18a10,10,0,0,0-18.88,0c0-.16,0-.32,0-.48a9.45,9.45,0,0,1,18.9,0C121.75,64.86,121.75,65,121.74,65.18Z" transform="translate(-23.9 -8)"/><path class="cls-9" d="M112.3,55.5a9.22,9.22,0,0,1,9.16,8.34,10.21,10.21,0,0,0-18.32,0,9.2,9.2,0,0,1,9.16-8.34m0-.5a9.7,9.7,0,0,0-9.7,9.7,9.85,9.85,0,0,0,.17,1.82,9.7,9.7,0,0,1,19.06,0A9.85,9.85,0,0,0,122,64.7a9.7,9.7,0,0,0-9.7-9.7Z" transform="translate(-23.9 -8)"/><path class="cls-10" d="M151.42,147.75a1.26,1.26,0,0,1-.62-.17l-13.85-8a1.25,1.25,0,0,1-.46-1.7,1.24,1.24,0,0,1,1.71-.46l13.85,8a1.25,1.25,0,0,1,.46,1.7A1.25,1.25,0,0,1,151.42,147.75Z" transform="translate(-23.9 -8)"/><path class="cls-9" d="M137.58,137.5h0a1.05,1.05,0,0,1,.49.13l13.86,8a1,1,0,0,1-.51,1.87,1.05,1.05,0,0,1-.49-.13l-13.86-8a1,1,0,0,1,.51-1.87m0-.5a1.52,1.52,0,0,0-1.31.75h0a1.51,1.51,0,0,0,.55,2.05l13.86,8a1.5,1.5,0,0,0,2-.55h0a1.51,1.51,0,0,0-.55-2.05l-13.86-8a1.52,1.52,0,0,0-.74-.2Z" transform="translate(-23.9 -8)"/><path class="cls-10" d="M167.58,149.75a1.25,1.25,0,0,1-1.09-.63,1.25,1.25,0,0,1,.46-1.7l13.85-8a1.24,1.24,0,0,1,1.71.46,1.25,1.25,0,0,1-.46,1.7l-13.85,8A1.26,1.26,0,0,1,167.58,149.75Z" transform="translate(-23.9 -8)"/><path class="cls-9" d="M181.42,139.5a1,1,0,0,1,.51,1.87l-13.86,8a1.05,1.05,0,0,1-.49.13,1,1,0,0,1-.51-1.87l13.86-8a1.05,1.05,0,0,1,.49-.13h0m0-.5a1.52,1.52,0,0,0-.74.2l-13.86,8a1.51,1.51,0,0,0-.55,2.05h0a1.5,1.5,0,0,0,2,.55l13.86-8a1.51,1.51,0,0,0,.55-2.05h0a1.52,1.52,0,0,0-1.31-.75Z" transform="translate(-23.9 -8)"/></svg>