<?xml version="1.0" encoding="utf-8"?>
<!-- Generator: Adobe Illustrator 24.3.0, SVG Export Plug-In . SVG Version: 6.00 Build 0)  -->
<svg version="1.1" id="Layer_1" xmlns="http://www.w3.org/2000/svg" xmlns:xlink="http://www.w3.org/1999/xlink" x="0px" y="0px"
	 viewBox="0 0 128 128" style="enable-background:new 0 0 128 128;" xml:space="preserve">
<style type="text/css">
	.st0{fill:#5B8EC1;}
	.st1{fill:#FFFFFF;}
	.st2{opacity:0.63;}
	.st3{fill:#FBB03B;}
	.st4{fill:#4D4D4D;}
	.st5{fill:#91BECE;}
	.st6{fill:#98E094;}
	.st7{fill:#22B573;}
	.st8{fill:#666666;}
	.st9{fill:#C1272D;}
</style>
<g>
	<circle class="st0" cx="64" cy="56.27" r="53.09"/>
	<g>
		<path class="st1" d="M64,123.98c-3.36,0-6.09-2.73-6.09-6.09c0-3.36,2.73-6.09,6.09-6.09c3.36,0,6.09,2.73,6.09,6.09
			C70.09,121.25,67.36,123.98,64,123.98z"/>
		<path class="st0" d="M64,112.64c2.9,0,5.26,2.36,5.26,5.26s-2.36,5.26-5.26,5.26s-5.26-2.36-5.26-5.26S61.1,112.64,64,112.64
			 M64,110.97c-3.82,0-6.92,3.1-6.92,6.92c0,3.82,3.1,6.92,6.92,6.92s6.92-3.1,6.92-6.92C70.92,114.07,67.82,110.97,64,110.97
			L64,110.97z"/>
	</g>
	<ellipse class="st1" cx="63.98" cy="55.92" rx="50.24" ry="50.52"/>
	<g class="st2">
		<path class="st3" d="M82.3,99.22c-7.51,0-14.49-3.38-19.15-9.26c-0.68-0.86-1.32-1.78-1.89-2.75c0.11,0.01,0.75,0.05,0.75,0.05
			l-0.13-0.39c-0.82-2.45-1.23-5.02-1.23-7.63c0-6.04,2.24-11.82,6.31-16.27c0.97-0.78,1.91-1.66,2.78-2.61
			c0.21-0.22,0.41-0.46,0.61-0.69c0.18-0.21,0.36-0.42,0.53-0.64c0.03-0.04,0.06-0.07,0.08-0.11c0.16-0.2,0.34-0.44,0.52-0.68
			c0.19-0.25,0.36-0.5,0.53-0.76c0.19-0.27,0.37-0.56,0.55-0.86c1.01-1.63,1.82-3.4,2.42-5.24c0.8-2.46,1.21-5.04,1.21-7.66
			c0-0.49-0.02-0.99-0.04-1.47c3.19,2.04,5.87,4.82,7.79,8.07c0.56,0.93,1.06,1.92,1.49,2.96l0.12,0.29l0.27-0.16
			c1.15-0.66,2.23-1.41,3.21-2.21c5.95-4.8,9.36-11.92,9.36-19.56c0-7.47-3.22-14.36-8.79-19.09c15.24,8.95,24.88,25.56,24.88,43.38
			c0,8.08-1.86,15.79-5.52,22.93c-1.75,3.4-3.89,6.61-6.37,9.53c-2.29,2.7-4.86,5.17-7.66,7.32c0,0-0.05,0.02-0.05,0.02l0,0
			c-0.42,0.25-0.86,0.5-1.33,0.74c-0.42,0.22-0.85,0.43-1.29,0.63c-0.55,0.25-1.09,0.47-1.61,0.65c-0.16,0.06-0.33,0.12-0.5,0.17
			c-0.34,0.12-0.68,0.23-1.02,0.33c-0.26,0.08-0.52,0.15-0.78,0.21c-0.23,0.06-0.46,0.12-0.68,0.16c-0.31,0.07-0.62,0.13-0.93,0.19
			c-0.23,0.04-0.47,0.08-0.7,0.11c-0.07,0.02-0.09,0.02-0.12,0.02c-0.23,0.03-0.46,0.07-0.7,0.09l-0.13,0.02
			c-0.19,0.02-0.39,0.04-0.58,0.05c-0.11,0.01-0.21,0.02-0.32,0.03c-0.24,0.02-0.48,0.04-0.71,0.04c-0.26,0.02-0.51,0.02-0.77,0.03
			h-0.07c-0.12,0.01-0.23,0.01-0.34,0.01C82.31,99.22,82.31,99.22,82.3,99.22z"/>
		<path class="st4" d="M91.78,14.22c5.8,3.83,10.77,8.85,14.56,14.76c5.16,8.04,7.88,17.35,7.88,26.95c0,8.03-1.85,15.7-5.49,22.8
			c-1.74,3.38-3.87,6.57-6.34,9.48c-2.27,2.68-4.82,5.12-7.59,7.26l-0.04,0.02l-0.02,0.02c-0.42,0.25-0.85,0.5-1.31,0.73
			c-0.4,0.22-0.83,0.42-1.28,0.62c-0.54,0.24-1.07,0.46-1.6,0.65c-0.16,0.06-0.32,0.12-0.5,0.17c-0.36,0.13-0.69,0.23-1.01,0.32
			c-0.25,0.08-0.51,0.15-0.77,0.21c-0.22,0.06-0.44,0.11-0.67,0.16c-0.3,0.07-0.61,0.13-0.93,0.19c-0.22,0.04-0.45,0.08-0.68,0.11
			l-0.05,0.01l-0.02,0.01c-0.01,0-0.03,0-0.05,0.01c-0.23,0.03-0.46,0.07-0.7,0.09l-0.11,0.01c-0.19,0.02-0.38,0.04-0.59,0.05
			c-0.1,0.01-0.2,0.02-0.32,0.03c-0.25,0.02-0.48,0.04-0.71,0.04c-0.25,0.02-0.49,0.02-0.74,0.03l-0.1,0c-0.1,0-0.2,0-0.3,0
			c-0.01,0-0.02,0-0.02,0c-7.42,0-14.32-3.34-18.93-9.16c-0.57-0.71-1.1-1.47-1.59-2.26l0.64,0.04l-0.26-0.78
			c-0.81-2.42-1.22-4.96-1.22-7.55c0-5.96,2.2-11.66,6.21-16.05c1-0.81,1.94-1.7,2.8-2.64c0.21-0.23,0.42-0.46,0.62-0.7
			c0.18-0.21,0.36-0.43,0.55-0.66c0.01-0.02,0.04-0.05,0.06-0.08c0.16-0.21,0.33-0.43,0.54-0.71c0.21-0.29,0.38-0.53,0.53-0.76
			c0.19-0.28,0.37-0.55,0.57-0.88c1.02-1.65,1.84-3.44,2.45-5.3c0.81-2.49,1.23-5.1,1.23-7.74c0-0.31-0.01-0.63-0.02-0.94
			c2.95,1.98,5.44,4.62,7.25,7.68c0.55,0.91,1.04,1.9,1.47,2.92l0.24,0.58l0.55-0.32c1.16-0.67,2.25-1.42,3.25-2.23
			c6.02-4.85,9.47-12.06,9.47-19.77C98.68,25.02,96.18,18.86,91.78,14.22 M86.12,10.36c7.19,4.35,12.01,12.25,12.01,21.27
			c0,7.82-3.61,14.79-9.26,19.34c-0.99,0.81-2.06,1.54-3.18,2.18c-0.43-1.04-0.93-2.04-1.5-2.99c-2.04-3.46-4.92-6.37-8.35-8.45
			c0.06,0.66,0.08,1.33,0.08,2c0,2.64-0.42,5.19-1.2,7.57c-0.59,1.83-1.4,3.57-2.39,5.18c-0.18,0.29-0.36,0.57-0.55,0.85
			c-0.17,0.26-0.34,0.5-0.52,0.75c-0.18,0.24-0.36,0.48-0.54,0.72c-0.01,0.02-0.03,0.04-0.05,0.07c-0.17,0.22-0.35,0.43-0.53,0.64
			c-0.19,0.23-0.39,0.46-0.6,0.68c-0.85,0.94-1.78,1.81-2.78,2.61c-3.97,4.34-6.38,10.11-6.38,16.46c0,2.7,0.44,5.3,1.25,7.72
			c-0.29-0.02-0.58-0.04-0.87-0.07c0.64,1.14,1.37,2.23,2.18,3.24c4.52,5.71,11.52,9.36,19.37,9.36c0.12,0,0.23,0,0.35-0.01h0.08
			c0.26-0.01,0.52-0.01,0.77-0.03c0.24-0.01,0.48-0.02,0.72-0.04c0.11-0.01,0.22-0.02,0.32-0.03c0.2-0.02,0.4-0.03,0.59-0.06
			c0.04-0.01,0.09-0.01,0.13-0.02c0.24-0.03,0.47-0.06,0.7-0.09c0.04-0.01,0.08-0.01,0.12-0.02c0.24-0.03,0.48-0.07,0.71-0.12
			c0.32-0.06,0.63-0.12,0.94-0.19c0.23-0.05,0.47-0.11,0.69-0.17c0.27-0.07,0.53-0.14,0.79-0.22c0.35-0.1,0.69-0.21,1.03-0.33
			c0.17-0.06,0.34-0.12,0.51-0.18c0.56-0.2,1.1-0.42,1.63-0.66c0.44-0.19,0.88-0.41,1.31-0.63c0.47-0.24,0.94-0.51,1.39-0.78
			c0.01-0.01,0.01-0.01,0.02-0.01c2.82-2.18,5.41-4.65,7.71-7.37c2.48-2.93,4.64-6.14,6.41-9.58c3.55-6.91,5.55-14.75,5.55-23.05
			C114.78,35.85,103.07,18.52,86.12,10.36L86.12,10.36z"/>
	</g>
	<path class="st5" d="M27.26,21.44c-0.11,0.14-0.22,0.29-0.33,0.44c0.13-0.13,0.25-0.27,0.37-0.4
		C27.28,21.47,27.27,21.46,27.26,21.44L27.26,21.44z"/>
	<path class="st5" d="M68.06,106.29c-1.08,0.08-2.18,0.13-3.28,0.14c0.19,0.01,0.39,0.01,0.59,0.01
		C66.28,106.44,67.17,106.39,68.06,106.29L68.06,106.29z"/>
	<g>
		<path class="st6" d="M61.01,106.2c-26.27-1.68-47.13-23.59-47.13-50.27c0-12.56,4.65-24.59,13.09-33.87l0.05-0.06
			c0.13-0.14,0.47-0.51,0.47-0.51l-0.09-0.09l-0.01-0.01l-0.03-0.03c-1.17-1.13-1.81-2.65-1.81-4.28c0-3.29,2.68-5.97,5.97-5.97
			c1.99,0,3.84,0.99,4.95,2.64c0.09,0.13,0.17,0.26,0.24,0.39l0.06,0.11l0.11-0.05c3.04-1.31,6.27-1.98,9.62-1.98
			c2.75,0,5.44,0.46,8,1.35l0.11,0.04l0.06-0.1c1.06-1.82,3.04-2.96,5.15-2.96c0.17,0,0.34,0.01,0.51,0.02
			c3.06,0.26,5.45,2.87,5.45,5.95c0,1.32-0.42,2.56-1.21,3.6l-0.07,0.09l0.08,0.09c1.67,1.86,3.03,3.95,4.05,6.21
			c1.42,3.15,2.15,6.51,2.15,10c0,0.96-0.06,1.93-0.17,2.86c-0.67,5.68-3.35,10.97-7.54,14.88c-1.13,1.06-2.37,2.01-3.66,2.83
			c-2.26,1.42-4.71,2.45-7.29,3.06c-2.96,1.83-5.43,4.19-7.4,7.02c-1.44,2.08-2.56,4.36-3.33,6.78c-0.76,2.43-1.15,4.96-1.15,7.54
			C40.25,93.7,49.27,104.1,61.01,106.2z"/>
		<path class="st4" d="M59.82,10.68c0.19,0,0.35,0.01,0.5,0.02c2.99,0.25,5.32,2.81,5.32,5.81c0,1.29-0.41,2.5-1.18,3.52l-0.14,0.18
			l0.15,0.17c1.66,1.85,3.02,3.93,4.03,6.17c1.42,3.13,2.13,6.48,2.13,9.94c0,0.96-0.06,1.91-0.16,2.84
			c-0.67,5.65-3.33,10.9-7.5,14.8c-1.13,1.06-2.35,2-3.64,2.81c-2.24,1.42-4.68,2.44-7.25,3.05L52.05,60l-0.04,0.02
			c-2.93,1.83-5.42,4.19-7.4,7.04c-1.45,2.09-2.58,4.38-3.35,6.82c-0.77,2.44-1.16,4.99-1.16,7.58c0,11.6,8.05,21.55,18.85,24.43
			c-25.22-2.65-44.94-24.05-44.94-49.96c0-12.53,4.63-24.52,13.06-33.79c0.02-0.02,0.04-0.05,0.05-0.07
			c0.12-0.13,0.24-0.26,0.36-0.39l0.18-0.2l-0.19-0.19l-0.02-0.02l0-0.01l-0.02-0.02c-1.14-1.1-1.77-2.59-1.77-4.18
			c0-3.21,2.61-5.83,5.83-5.83c1.95,0,3.76,0.96,4.84,2.58c0.08,0.12,0.16,0.25,0.24,0.38l0.12,0.22l0.23-0.1
			c3.02-1.31,6.24-1.97,9.56-1.97c2.73,0,5.41,0.45,7.96,1.34l0.22,0.08l0.12-0.2C55.82,11.79,57.75,10.68,59.82,10.68 M59.82,10.4
			c-2.25,0-4.22,1.22-5.27,3.03c-2.52-0.88-5.23-1.36-8.05-1.36c-3.44,0-6.71,0.71-9.67,1.99c-0.08-0.14-0.16-0.27-0.25-0.4
			c-1.09-1.63-2.95-2.7-5.07-2.7c-3.38,0-6.11,2.73-6.11,6.11c0,1.72,0.71,3.28,1.85,4.38c0.01,0.02,0.03,0.03,0.04,0.04
			c-0.12,0.13-0.24,0.27-0.37,0.4c-0.02,0.02-0.03,0.04-0.06,0.07c-8.15,8.97-13.12,20.89-13.12,33.97
			c0,27.9,22.62,50.52,50.52,50.52c0.16,0,0.31,0,0.47-0.01c-13.5-0.34-24.34-11.4-24.34-24.97c0-2.61,0.4-5.13,1.14-7.49
			c0.77-2.43,1.89-4.7,3.31-6.74c1.94-2.79,4.43-5.16,7.32-6.96c2.64-0.62,5.11-1.68,7.33-3.08c1.32-0.83,2.55-1.78,3.68-2.84
			c4.11-3.84,6.89-9.08,7.58-14.97c0.11-0.94,0.17-1.9,0.17-2.88c0-3.58-0.77-6.98-2.16-10.05c-1.03-2.29-2.41-4.4-4.07-6.25
			c0.78-1.02,1.24-2.3,1.24-3.69c0-3.2-2.45-5.82-5.58-6.08C60.17,10.41,60,10.4,59.82,10.4L59.82,10.4z"/>
	</g>
	<g>
		<path class="st7" d="M44.36,34.93c-0.74-2.22-2.84-3.77-5.24-3.77s-4.5,1.55-5.24,3.77c0-0.09-0.01-0.18-0.01-0.26
			c0-2.89,2.35-5.25,5.25-5.25s5.25,2.35,5.25,5.25C44.36,34.75,44.36,34.84,44.36,34.93z"/>
		<path class="st8" d="M39.11,29.55c2.66,0,4.84,2.04,5.09,4.63c-0.93-1.9-2.88-3.17-5.09-3.17c-2.2,0-4.15,1.27-5.09,3.17
			C34.27,31.59,36.46,29.55,39.11,29.55 M39.11,29.28c-2.98,0-5.39,2.41-5.39,5.39c0,0.34,0.03,0.69,0.09,1.01
			c0.47-2.49,2.66-4.38,5.29-4.38c2.63,0,4.82,1.89,5.29,4.38c0.06-0.32,0.09-0.67,0.09-1.01C44.5,31.69,42.09,29.28,39.11,29.28
			L39.11,29.28z"/>
	</g>
	<g>
		<path class="st7" d="M65.23,34.93c-0.74-2.22-2.84-3.77-5.24-3.77s-4.5,1.55-5.24,3.77c0-0.09-0.01-0.18-0.01-0.26
			c0-2.89,2.35-5.25,5.25-5.25s5.25,2.35,5.25,5.25C65.23,34.75,65.23,34.84,65.23,34.93z"/>
		<path class="st8" d="M59.98,29.55c2.66,0,4.84,2.04,5.09,4.63c-0.93-1.9-2.88-3.17-5.09-3.17c-2.2,0-4.15,1.27-5.09,3.17
			C55.14,31.59,57.33,29.55,59.98,29.55 M59.98,29.28c-2.98,0-5.39,2.41-5.39,5.39c0,0.34,0.03,0.69,0.09,1.01
			c0.47-2.49,2.66-4.38,5.29-4.38c2.63,0,4.82,1.89,5.29,4.38c0.06-0.32,0.09-0.67,0.09-1.01C65.37,31.69,62.96,29.28,59.98,29.28
			L59.98,29.28z"/>
	</g>
	<g>
		<path class="st9" d="M81.7,80.76c-0.12,0-0.24-0.03-0.34-0.09l-7.69-4.44c-0.16-0.09-0.27-0.24-0.32-0.42s-0.02-0.37,0.07-0.53
			c0.12-0.21,0.35-0.35,0.6-0.35c0.12,0,0.24,0.03,0.34,0.09l7.69,4.44c0.16,0.09,0.27,0.24,0.32,0.42s0.02,0.37-0.07,0.53
			C82.18,80.63,81.95,80.76,81.7,80.76z"/>
		<path class="st8" d="M74.02,75.07L74.02,75.07c0.1,0,0.19,0.03,0.28,0.07l7.69,4.44c0.27,0.15,0.36,0.49,0.2,0.76
			c-0.1,0.17-0.28,0.28-0.48,0.28c-0.1,0-0.19-0.03-0.28-0.07l-7.69-4.44c-0.27-0.15-0.36-0.49-0.2-0.76
			C73.63,75.18,73.82,75.07,74.02,75.07 M74.02,74.8c-0.29,0-0.57,0.15-0.72,0.42h0c-0.23,0.4-0.09,0.91,0.3,1.14l7.69,4.44
			c0.13,0.08,0.27,0.11,0.41,0.11c0.29,0,0.57-0.15,0.72-0.42h0c0.23-0.4,0.09-0.91-0.3-1.14l-7.69-4.44
			C74.3,74.83,74.16,74.8,74.02,74.8L74.02,74.8z"/>
	</g>
	<g>
		<path class="st9" d="M90.67,81.87c-0.25,0-0.48-0.13-0.6-0.35C89.98,81.37,89.95,81.18,90,81s0.16-0.33,0.32-0.42l7.69-4.44
			c0.1-0.06,0.22-0.09,0.34-0.09c0.25,0,0.48,0.13,0.6,0.35c0.09,0.16,0.12,0.35,0.07,0.53s-0.16,0.33-0.32,0.42l-7.69,4.44
			C90.91,81.84,90.79,81.87,90.67,81.87z"/>
		<path class="st8" d="M98.36,76.19c0.2,0,0.38,0.11,0.48,0.28c0.15,0.27,0.06,0.61-0.2,0.76l-7.69,4.44
			c-0.08,0.05-0.18,0.07-0.28,0.07c-0.2,0-0.38-0.11-0.48-0.28c-0.15-0.27-0.06-0.61,0.2-0.76l7.69-4.44
			C98.17,76.21,98.26,76.19,98.36,76.19L98.36,76.19 M98.36,75.91c-0.14,0-0.28,0.04-0.41,0.11l-7.69,4.44
			c-0.4,0.23-0.53,0.74-0.3,1.14h0c0.15,0.27,0.44,0.42,0.72,0.42c0.14,0,0.28-0.04,0.41-0.11l7.69-4.44
			c0.4-0.23,0.53-0.74,0.3-1.14h0C98.93,76.06,98.65,75.91,98.36,75.91L98.36,75.91z"/>
	</g>
</g>
</svg>
